<svg width="532" height="81" viewBox="0 0 532 81" fill="none" xmlns="http://www.w3.org/2000/svg">
<path d="M525.62 72.9793C524.677 77.645 520.577 81 515.817 81L10 81C4.47716 81 0 76.5228 0 71V10C0 4.47715 4.47715 0 10 0L515.748 0C520.539 0 524.657 3.39799 525.566 8.10187L531.625 39.4401C531.873 40.7213 531.867 42.0385 531.609 43.3175L525.62 72.9793Z" fill="url(#paint0_linear_63_93)"/>
<path d="M515.817 80.5L10 80.5C4.7533 80.5 0.5 76.2467 0.5 71V10C0.5 4.7533 4.7533 0.5 10 0.5L515.748 0.5C520.3 0.5 524.211 3.7281 525.075 8.19677L531.134 39.5351C531.369 40.7521 531.364 42.0035 531.119 43.2186L525.129 72.8803C524.234 77.3127 520.339 80.5 515.817 80.5Z" stroke="black" stroke-opacity="0.2"/>
<defs>
<linearGradient id="paint0_linear_63_93" x1="532" y1="40.5" x2="0" y2="40.5" gradientUnits="userSpaceOnUse">
<stop stop-color="#5454D4"/>
<stop offset="1" stop-color="#A97DEF"/>
</linearGradient>
</defs>
</svg>
