<svg width="29" height="29" viewBox="0 0 29 29" fill="none" xmlns="http://www.w3.org/2000/svg">
<path d="M15.2454 3.02134C13.5844 2.90043 11.9169 3.13857 10.3562 3.71956C8.79548 4.30056 7.37815 5.21078 6.20056 6.38837C5.02298 7.56595 4.11275 8.98329 3.53176 10.544C2.95076 12.1047 2.71262 13.7723 2.83353 15.4332C3.25152 21.5753 8.61568 26.208 14.7694 26.208H19.0537C19.6923 26.208 20.2148 25.6855 20.2148 25.0469C20.2148 24.4083 19.6923 23.8858 19.0537 23.8858H14.7926C10.4618 23.8858 6.49091 21.076 5.41112 16.8846C3.68112 10.1503 9.95091 3.86892 16.6851 5.61053C20.8882 6.67872 23.698 10.6496 23.698 14.9804V16.2576C23.698 17.1748 22.8737 18.0805 21.9564 18.0805C21.0392 18.0805 20.2148 17.1748 20.2148 16.2576V14.8062C20.2148 11.8919 18.1481 9.26791 15.2686 8.86154C14.3525 8.72531 13.4171 8.80991 12.5402 9.10829C11.6634 9.40666 10.8705 9.91018 10.2276 10.5769C9.58475 11.2437 9.11043 12.0544 8.84419 12.9415C8.57794 13.8286 8.52746 14.7665 8.69695 15.677C8.90059 16.7742 9.41638 17.7894 10.1825 18.6008C10.9486 19.4122 11.9325 19.9854 13.0161 20.2517C15.1525 20.7509 17.1844 20.0659 18.5196 18.7074C19.553 20.124 21.6197 20.867 23.5123 20.1123C25.0681 19.497 26.0202 17.8947 26.0202 16.2227V14.9688C26.0202 8.80348 21.3875 3.43932 15.2454 3.02134V3.02134ZM14.4094 18.0805C12.4821 18.0805 10.9262 16.5246 10.9262 14.5972C10.9262 12.6699 12.4821 11.114 14.4094 11.114C16.3368 11.114 17.8927 12.6699 17.8927 14.5972C17.8927 16.5246 16.3368 18.0805 14.4094 18.0805Z" fill="white"/>
</svg>
