<svg width="15" height="23" viewBox="0 0 15 23" fill="none" xmlns="http://www.w3.org/2000/svg">
<path d="M2.53287 0.471191C1.97858 0.471191 1.447 0.69138 1.05506 1.08332C0.663121 1.47526 0.442932 2.00684 0.442932 2.56112V20.6739C0.442932 21.2282 0.663121 21.7597 1.05506 22.1517C1.447 22.5436 1.97858 22.7638 2.53287 22.7638H12.2859C12.8402 22.7638 13.3718 22.5436 13.7637 22.1517C14.1556 21.7597 14.3758 21.2282 14.3758 20.6739V2.56112C14.3758 2.00684 14.1556 1.47526 13.7637 1.08332C13.3718 0.69138 12.8402 0.471191 12.2859 0.471191H2.53287ZM6.01609 17.1907H8.80266C8.98743 17.1907 9.16462 17.264 9.29527 17.3947C9.42591 17.5253 9.49931 17.7025 9.49931 17.8873C9.49931 18.0721 9.42591 18.2493 9.29527 18.3799C9.16462 18.5105 8.98743 18.5839 8.80266 18.5839H6.01609C5.83133 18.5839 5.65413 18.5105 5.52348 18.3799C5.39284 18.2493 5.31944 18.0721 5.31944 17.8873C5.31944 17.7025 5.39284 17.5253 5.52348 17.3947C5.65413 17.264 5.83133 17.1907 6.01609 17.1907Z" fill="white"/>
</svg>
